 <svg class="navbar-logo" width="169" height="25" viewBox="0 0 169 25" fill="none" xmlns="http://www.w3.org/2000/svg">
                <path d="M17.5 21.875V13.5417C17.5 13.2654 17.3771 13.0004 17.1583 12.8051C16.9395 12.6097 16.6428 12.5 16.3333 12.5H11.6667C11.3572 12.5 11.0605 12.6097 10.8417 12.8051C10.6229 13.0004 10.5 13.2654 10.5 13.5417V21.875" stroke="#55B685" stroke-width="0.962768" stroke-linecap="round" stroke-linejoin="round"/>
                <path d="M3.5 10.4168C3.49992 10.1137 3.57389 9.8143 3.71675 9.5394C3.85962 9.26449 4.06793 9.02073 4.32717 8.82511L12.4938 2.57615C12.915 2.25835 13.4486 2.08398 14 2.08398C14.5514 2.08398 15.085 2.25835 15.5062 2.57615L23.6728 8.82511C23.9321 9.02073 24.1404 9.26449 24.2832 9.5394C24.4261 9.8143 24.5001 10.1137 24.5 10.4168V19.7918C24.5 20.3443 24.2542 20.8742 23.8166 21.2649C23.379 21.6556 22.7855 21.8751 22.1667 21.8751H5.83333C5.21449 21.8751 4.621 21.6556 4.18342 21.2649C3.74583 20.8742 3.5 20.3443 3.5 19.7918V10.4168Z" stroke="#55B685" stroke-width="0.962768" stroke-linecap="round" stroke-linejoin="round"/>
                <path d="M37.9318 20V5.45455H42.6264C43.6586 5.45455 44.5204 5.64157 45.2116 6.01562C45.9077 6.38494 46.4309 6.89867 46.7812 7.55682C47.1364 8.21023 47.3139 8.9607 47.3139 9.80824C47.3139 10.6558 47.1364 11.4039 46.7812 12.0526C46.4309 12.7012 45.91 13.2079 45.2188 13.5724C44.5275 13.937 43.6705 14.1193 42.6477 14.1193H38.6491V12.9048H42.6122C43.3698 12.9048 43.9995 12.7794 44.5014 12.5284C45.008 12.2775 45.3845 11.92 45.6307 11.456C45.8816 10.992 46.0071 10.4427 46.0071 9.80824C46.0071 9.17377 45.8816 8.61979 45.6307 8.14631C45.3797 7.66809 45.0009 7.29877 44.4943 7.03835C43.9924 6.77793 43.358 6.64773 42.5909 6.64773H39.2599V20H37.9318ZM44.3452 13.4375L47.9247 20H46.3906L42.8466 13.4375H44.3452ZM54.5795 20.2273C53.5616 20.2273 52.6809 19.9905 51.9375 19.517C51.1941 19.0388 50.6188 18.3783 50.2116 17.5355C49.8092 16.688 49.608 15.7126 49.608 14.6094C49.608 13.5109 49.8092 12.5355 50.2116 11.6832C50.6188 10.8262 51.1799 10.1562 51.8949 9.6733C52.6146 9.18561 53.4455 8.94176 54.3878 8.94176C54.9796 8.94176 55.5502 9.05066 56.0994 9.26847C56.6487 9.48153 57.1411 9.81061 57.5767 10.2557C58.017 10.696 58.3651 11.2524 58.6207 11.9247C58.8764 12.5923 59.0043 13.383 59.0043 14.2969V14.9219H50.4815V13.8068H57.7116C57.7116 13.1061 57.5696 12.4763 57.2855 11.9176C57.0062 11.3542 56.6155 10.9091 56.1136 10.5824C55.6165 10.2557 55.0412 10.0923 54.3878 10.0923C53.6965 10.0923 53.0881 10.277 52.5625 10.6463C52.0369 11.0156 51.625 11.5033 51.3267 12.1094C51.0331 12.7154 50.884 13.3783 50.8793 14.098V14.7656C50.8793 15.6321 51.0284 16.3897 51.3267 17.0384C51.6297 17.6823 52.0582 18.1818 52.6122 18.5369C53.1662 18.892 53.822 19.0696 54.5795 19.0696C55.0956 19.0696 55.5478 18.9891 55.9361 18.8281C56.3291 18.6671 56.6581 18.4517 56.9233 18.1818C57.1932 17.9072 57.3968 17.6065 57.5341 17.2798L58.7344 17.6705C58.5687 18.1297 58.2964 18.5535 57.9176 18.9418C57.5436 19.33 57.0748 19.6425 56.5114 19.8793C55.9527 20.1113 55.3087 20.2273 54.5795 20.2273ZM64.837 20.2486C64.1789 20.2486 63.5775 20.1207 63.033 19.8651C62.4885 19.6046 62.0553 19.2306 61.7333 18.7429C61.4113 18.2505 61.2504 17.6539 61.2504 16.9531C61.2504 16.4134 61.3522 15.9588 61.5558 15.5895C61.7594 15.2202 62.0482 14.9171 62.4222 14.6804C62.7963 14.4437 63.239 14.2566 63.7504 14.1193C64.2617 13.982 64.8252 13.8755 65.4407 13.7997C66.0515 13.724 66.5676 13.6577 66.989 13.6009C67.4151 13.544 67.7395 13.4541 67.962 13.331C68.1845 13.2079 68.2958 13.009 68.2958 12.7344V12.4787C68.2958 11.7353 68.0733 11.1506 67.6282 10.7244C67.1879 10.2936 66.5534 10.0781 65.7248 10.0781C64.9388 10.0781 64.2972 10.2509 63.8001 10.5966C63.3076 10.9422 62.962 11.3494 62.7631 11.8182L61.5629 11.3849C61.8091 10.7884 62.15 10.3125 62.5856 9.95739C63.0212 9.59754 63.5089 9.33949 64.0487 9.18324C64.5884 9.02225 65.1353 8.94176 65.6893 8.94176C66.1059 8.94176 66.5392 8.99621 66.989 9.10511C67.4435 9.21401 67.8649 9.40341 68.2532 9.6733C68.6415 9.93845 68.9563 10.3101 69.1978 10.7884C69.4393 11.2618 69.56 11.8632 69.56 12.5923V20H68.2958V18.2741H68.2177C68.0662 18.5961 67.8413 18.9086 67.543 19.2116C67.2447 19.5147 66.8706 19.7633 66.4208 19.9574C65.971 20.1515 65.4431 20.2486 64.837 20.2486ZM65.0075 19.0909C65.6798 19.0909 66.2622 18.9418 66.7546 18.6435C67.247 18.3452 67.6258 17.9498 67.891 17.4574C68.1609 16.9602 68.2958 16.4134 68.2958 15.8168V14.2401C68.2011 14.33 68.0425 14.4105 67.82 14.4815C67.6022 14.5526 67.3488 14.6165 67.06 14.6733C66.7759 14.7254 66.4918 14.7704 66.2077 14.8082C65.9237 14.8461 65.668 14.8793 65.4407 14.9077C64.8252 14.9834 64.2996 15.1018 63.864 15.2628C63.4284 15.4238 63.0946 15.6463 62.8626 15.9304C62.6306 16.2098 62.5146 16.5696 62.5146 17.0099C62.5146 17.6728 62.7513 18.1866 63.2248 18.5511C63.6983 18.911 64.2925 19.0909 65.0075 19.0909ZM77.1843 20.2273C76.2089 20.2273 75.359 19.9834 74.6346 19.4957C73.9149 19.008 73.3562 18.3404 72.9585 17.4929C72.5607 16.6454 72.3619 15.6795 72.3619 14.5952C72.3619 13.5014 72.5631 12.5284 72.9656 11.6761C73.3728 10.8239 73.9362 10.1562 74.6559 9.6733C75.3756 9.18561 76.2113 8.94176 77.163 8.94176C77.8922 8.94176 78.5527 9.08381 79.1445 9.3679C79.7364 9.64725 80.2241 10.0426 80.6076 10.554C80.9959 11.0606 81.2397 11.6525 81.3391 12.3295H80.0607C79.9281 11.714 79.6085 11.1884 79.1019 10.7528C78.6 10.3125 77.9608 10.0923 77.1843 10.0923C76.4883 10.0923 75.8728 10.2817 75.3377 10.6605C74.8027 11.0346 74.3836 11.5578 74.0806 12.2301C73.7823 12.8977 73.6332 13.6719 73.6332 14.5526C73.6332 15.438 73.7799 16.2216 74.0735 16.9034C74.3671 17.5805 74.779 18.1108 75.3093 18.4943C75.8443 18.8778 76.4693 19.0696 77.1843 19.0696C77.6673 19.0696 78.1076 18.9796 78.5053 18.7997C78.9078 18.6151 79.244 18.3546 79.5138 18.0185C79.7885 17.6823 79.9731 17.2822 80.0678 16.8182H81.3462C81.2515 17.4763 81.0172 18.0634 80.6431 18.5795C80.2738 19.0909 79.7932 19.4934 79.2013 19.7869C78.6142 20.0805 77.9419 20.2273 77.1843 20.2273ZM88.3526 9.09091V10.1918H83.1467V9.09091H88.3526ZM84.7731 6.47727H86.0444V17.152C86.0444 17.6065 86.1225 17.964 86.2788 18.2244C86.435 18.4801 86.6386 18.6624 86.8896 18.7713C87.1405 18.8755 87.408 18.9276 87.6921 18.9276C87.8578 18.9276 87.9999 18.9181 88.1183 18.8991C88.2366 18.8755 88.3408 18.8518 88.4308 18.8281L88.7006 19.9716C88.5775 20.0189 88.426 20.0616 88.2461 20.0994C88.0662 20.142 87.8436 20.1634 87.5785 20.1634C87.1145 20.1634 86.667 20.0616 86.2362 19.858C85.81 19.6544 85.4596 19.3513 85.185 18.9489C84.9104 18.5464 84.7731 18.0469 84.7731 17.4503V6.47727ZM93.049 5.45455V20H91.7209V5.45455H93.049ZM96.6534 20V9.09091H97.8821V10.767H97.9957C98.2135 10.2036 98.5758 9.76089 99.0824 9.43892C99.5938 9.11222 100.207 8.94886 100.922 8.94886C101.675 8.94886 102.293 9.12642 102.776 9.48153C103.263 9.83191 103.628 10.3149 103.869 10.9304H103.962C104.208 10.3243 104.608 9.84375 105.162 9.48864C105.721 9.12879 106.398 8.94886 107.193 8.94886C108.206 8.94886 109.007 9.26847 109.594 9.90767C110.181 10.5421 110.474 11.4702 110.474 12.6918V20H109.21V12.6918C109.21 11.83 108.99 11.1837 108.55 10.7528C108.109 10.322 107.529 10.1065 106.81 10.1065C105.976 10.1065 105.335 10.3622 104.885 10.8736C104.435 11.3849 104.21 12.0336 104.21 12.8196V20H102.918V12.5781C102.918 11.8395 102.712 11.2429 102.3 10.7884C101.888 10.3338 101.308 10.1065 100.56 10.1065C100.058 10.1065 99.6056 10.2296 99.2031 10.4759C98.8054 10.7221 98.4905 11.0653 98.2585 11.5057C98.0313 11.9413 97.9176 12.4432 97.9176 13.0114V20H96.6534ZM118.061 20.2273C117.119 20.2273 116.286 19.9882 115.561 19.5099C114.842 19.0317 114.278 18.3712 113.871 17.5284C113.464 16.6809 113.26 15.7031 113.26 14.5952C113.26 13.4777 113.464 12.4953 113.871 11.6477C114.278 10.7955 114.842 10.1326 115.561 9.65909C116.286 9.18087 117.119 8.94176 118.061 8.94176C119.004 8.94176 119.835 9.18087 120.554 9.65909C121.274 10.1373 121.837 10.8002 122.245 11.6477C122.657 12.4953 122.863 13.4777 122.863 14.5952C122.863 15.7031 122.659 16.6809 122.252 17.5284C121.845 18.3712 121.279 19.0317 120.554 19.5099C119.835 19.9882 119.004 20.2273 118.061 20.2273ZM118.061 19.0696C118.819 19.0696 119.461 18.866 119.986 18.4588C120.512 18.0516 120.909 17.5095 121.179 16.8324C121.454 16.1553 121.591 15.4096 121.591 14.5952C121.591 13.7808 121.454 13.0327 121.179 12.3509C120.909 11.669 120.512 11.1222 119.986 10.7102C119.461 10.2983 118.819 10.0923 118.061 10.0923C117.309 10.0923 116.667 10.2983 116.137 10.7102C115.611 11.1222 115.211 11.669 114.936 12.3509C114.667 13.0327 114.532 13.7808 114.532 14.5952C114.532 15.4096 114.667 16.1553 114.936 16.8324C115.211 17.5095 115.611 18.0516 116.137 18.4588C116.662 18.866 117.304 19.0696 118.061 19.0696ZM117.472 7.57812L119.29 4.35369H120.789L118.608 7.57812H117.472ZM133.692 9.09091L129.707 20H128.358L124.374 9.09091H125.744L128.983 18.331H129.082L132.321 9.09091H133.692ZM140.185 20.2273C139.167 20.2273 138.286 19.9905 137.543 19.517C136.8 19.0388 136.224 18.3783 135.817 17.5355C135.415 16.688 135.213 15.7126 135.213 14.6094C135.213 13.5109 135.415 12.5355 135.817 11.6832C136.224 10.8262 136.785 10.1562 137.5 9.6733C138.22 9.18561 139.051 8.94176 139.993 8.94176C140.585 8.94176 141.156 9.05066 141.705 9.26847C142.254 9.48153 142.747 9.81061 143.182 10.2557C143.623 10.696 143.971 11.2524 144.226 11.9247C144.482 12.5923 144.61 13.383 144.61 14.2969V14.9219H136.087V13.8068H143.317C143.317 13.1061 143.175 12.4763 142.891 11.9176C142.612 11.3542 142.221 10.9091 141.719 10.5824C141.222 10.2557 140.647 10.0923 139.993 10.0923C139.302 10.0923 138.694 10.277 138.168 10.6463C137.642 11.0156 137.23 11.5033 136.932 12.1094C136.639 12.7154 136.489 13.3783 136.485 14.098V14.7656C136.485 15.6321 136.634 16.3897 136.932 17.0384C137.235 17.6823 137.664 18.1818 138.218 18.5369C138.772 18.892 139.427 19.0696 140.185 19.0696C140.701 19.0696 141.153 18.9891 141.542 18.8281C141.935 18.6671 142.264 18.4517 142.529 18.1818C142.799 17.9072 143.002 17.6065 143.14 17.2798L144.34 17.6705C144.174 18.1297 143.902 18.5535 143.523 18.9418C143.149 19.33 142.68 19.6425 142.117 19.8793C141.558 20.1113 140.914 20.2273 140.185 20.2273ZM147.41 20V9.09091H148.681V20H147.41ZM148.056 7.21591C147.796 7.21591 147.573 7.12831 147.388 6.95312C147.204 6.7732 147.112 6.55777 147.112 6.30682C147.112 6.05587 147.204 5.8428 147.388 5.66761C147.573 5.48769 147.796 5.39773 148.056 5.39773C148.317 5.39773 148.539 5.48769 148.724 5.66761C148.908 5.8428 149.001 6.05587 149.001 6.30682C149.001 6.55777 148.908 6.7732 148.724 6.95312C148.539 7.12831 148.317 7.21591 148.056 7.21591ZM159.354 11.4844L158.196 11.8111C158.083 11.4844 157.922 11.1884 157.713 10.9233C157.505 10.6581 157.233 10.4474 156.897 10.2912C156.565 10.1349 156.153 10.0568 155.661 10.0568C154.922 10.0568 154.316 10.232 153.843 10.5824C153.369 10.9328 153.132 11.3849 153.132 11.9389C153.132 12.4077 153.293 12.7888 153.615 13.0824C153.942 13.3712 154.444 13.6009 155.121 13.7713L156.769 14.1761C157.683 14.3987 158.367 14.7514 158.821 15.2344C159.281 15.7173 159.51 16.3234 159.51 17.0526C159.51 17.6681 159.34 18.215 158.999 18.6932C158.658 19.1714 158.182 19.5478 157.571 19.8224C156.965 20.0923 156.262 20.2273 155.462 20.2273C154.397 20.2273 153.518 19.9882 152.827 19.5099C152.136 19.027 151.693 18.331 151.499 17.4219L152.713 17.1236C152.87 17.7723 153.175 18.2623 153.63 18.5938C154.089 18.9252 154.693 19.0909 155.441 19.0909C156.279 19.0909 156.949 18.9039 157.451 18.5298C157.953 18.151 158.203 17.6776 158.203 17.1094C158.203 16.669 158.057 16.2997 157.763 16.0014C157.47 15.6984 157.025 15.4759 156.428 15.3338L154.645 14.9077C153.698 14.6804 152.998 14.3205 152.543 13.8281C152.088 13.3357 151.861 12.7249 151.861 11.9957C151.861 11.3944 152.025 10.8665 152.351 10.4119C152.678 9.95265 153.128 9.5928 153.701 9.33239C154.274 9.07197 154.927 8.94176 155.661 8.94176C156.66 8.94176 157.458 9.16903 158.054 9.62358C158.656 10.0734 159.089 10.6937 159.354 11.4844Z" fill="#55B685"/>
            </svg>